<?xml version="1.0" encoding="UTF-8"?>
<svg width="256px" height="512px" viewBox="0 0 256 512" version="1.1" xmlns="http://www.w3.org/2000/svg">
    <title>Shape</title>
    <desc>Created with Sketch.</desc>
    <g id="Page-1" stroke="none" stroke-width="1" fill="none" fill-rule="evenodd">
        <g id="streetlight" transform="translate(-1.000000, 0.000000)" fill="#FFFFFF" fill-rule="nonzero">
            <path d="M255.702,132.011 L214.128,65.494 C211.96,26.223 164.754,0 120.466,0 C111.549,0 101.479,1.51 91.367,4.361 C63.284,12.271 43.666,38.546 43.666,68.267 L43.666,460.8 C20.14,460.8 0.999,479.94 0.999,503.467 C0.999,508.177 4.813,512 9.532,512 L128.999,512 C133.718,512 137.532,508.177 137.532,503.467 C137.532,479.941 118.392,460.8 94.865,460.8 L94.865,68.267 C94.865,62.473 106.914,51.2 128.998,51.2 C149.034,51.2 160.708,60.442 162.713,66.492 L121.762,132.011 C120.115,134.639 120.03,137.959 121.532,140.672 C123.042,143.386 125.901,145.067 128.999,145.067 L146.928,145.067 C150.896,164.514 168.133,179.2 188.733,179.2 C209.333,179.2 226.57,164.514 230.538,145.067 L248.467,145.067 C251.565,145.067 254.423,143.386 255.934,140.672 C257.434,137.958 257.349,134.639 255.702,132.011 Z M188.732,162.133 C177.605,162.133 168.115,154.999 164.591,145.066 L212.873,145.066 C209.349,154.999 199.86,162.133 188.732,162.133 Z" id="Shape"></path>
        </g>
    </g>
</svg>
