<?xml version="1.0" encoding="UTF-8"?>
<svg width="94px" height="41px" viewBox="0 0 94 41" version="1.1" xmlns="http://www.w3.org/2000/svg" xmlns:xlink="http://www.w3.org/1999/xlink">
    <!-- Generator: Sketch 55.2 (78181) - https://sketchapp.com -->
    <title>Atom/Logo/Mobile</title>
    <desc>Created with Sketch.</desc>
    <g id="Atom/Logo/Mobile" stroke="none" stroke-width="1" fill="none" fill-rule="evenodd">
        <g transform="translate(0.000000, -1.000000)" fill="#EC0000">
            <path d="M27.912,10.272 C26.6893272,10.9253366 25.3220076,11.252 23.81,11.252 C23.0446628,11.252 22.3423365,11.1283346 21.703,10.881 C21.0636635,10.6336654 20.5130023,10.2836689 20.051,9.831 C19.5889977,9.37833107 19.2273346,8.83466984 18.966,8.2 C18.7046654,7.56533016 18.574,6.86067054 18.574,6.086 C18.574,5.2926627 18.7046654,4.57166991 18.966,3.923 C19.2273346,3.27433009 19.5889977,2.72133562 20.051,2.264 C20.5130023,1.80666438 21.0636635,1.45433457 21.703,1.207 C22.3423365,0.95966543 23.0446628,0.836 23.81,0.836 C24.5660038,0.836 25.27533,0.92699909 25.938,1.109 C26.60067,1.29100091 27.1933307,1.615331 27.716,2.082 L26.414,3.398 C26.0966651,3.08999846 25.7116689,2.85200084 25.259,2.684 C24.8063311,2.51599916 24.3280025,2.432 23.824,2.432 C23.3106641,2.432 22.8463354,2.52299909 22.431,2.705 C22.0156646,2.88700091 21.6586682,3.13899839 21.36,3.461 C21.0613318,3.78300161 20.8303341,4.15866452 20.667,4.588 C20.5036659,5.01733548 20.422,5.47933086 20.422,5.974 C20.422,6.50600266 20.5036659,6.99599776 20.667,7.444 C20.8303341,7.89200224 21.0613318,8.2793317 21.36,8.606 C21.6586682,8.9326683 22.0156646,9.1893324 22.431,9.376 C22.8463354,9.5626676 23.3106641,9.656 23.824,9.656 C24.2720022,9.656 24.6943313,9.61400042 25.091,9.53 C25.4876686,9.44599958 25.8399985,9.31533422 26.148,9.138 L26.148,6.8 L24.118,6.8 L24.118,5.204 L27.912,5.204 L27.912,10.272 Z M31.18815,8.228 C31.2441503,8.73200252 31.4401483,9.1239986 31.77615,9.404 C32.1121517,9.6840014 32.5181476,9.824 32.99415,9.824 C33.4141521,9.824 33.7664819,9.73766753 34.05115,9.565 C34.3358181,9.39233247 34.5854823,9.17533464 34.80015,8.914 L36.00415,9.824 C35.612148,10.3093358 35.1734858,10.6546656 34.68815,10.86 C34.2028142,11.0653344 33.6941527,11.168 33.16215,11.168 C32.6581475,11.168 32.1821522,11.0840008 31.73415,10.916 C31.2861478,10.7479992 30.8988183,10.5100015 30.57215,10.202 C30.2454817,9.89399846 29.9864843,9.52300217 29.79515,9.089 C29.6038157,8.65499783 29.50815,8.17200266 29.50815,7.64 C29.50815,7.10799734 29.6038157,6.62500217 29.79515,6.191 C29.9864843,5.75699783 30.2454817,5.38600154 30.57215,5.078 C30.8988183,4.76999846 31.2861478,4.53200084 31.73415,4.364 C32.1821522,4.19599916 32.6581475,4.112 33.16215,4.112 C33.628819,4.112 34.0558147,4.19366585 34.44315,4.357 C34.8304853,4.52033415 35.1618153,4.75599846 35.43715,5.064 C35.7124847,5.37200154 35.9271492,5.75233107 36.08115,6.205 C36.2351508,6.65766893 36.31215,7.17799706 36.31215,7.766 L36.31215,8.228 L31.18815,8.228 Z M34.63215,6.968 C34.6228166,6.47333086 34.4688182,6.08366809 34.17015,5.799 C33.8714818,5.51433191 33.4561527,5.372 32.92415,5.372 C32.4201475,5.372 32.0211515,5.51666522 31.72715,5.806 C31.4331485,6.09533478 31.2534837,6.48266424 31.18815,6.968 L34.63215,6.968 Z M37.8103,4.28 L39.4063,4.28 L39.4063,5.33 L39.4343,5.33 C39.5836341,5.01266508 39.823965,4.73033457 40.1553,4.483 C40.486635,4.23566543 40.9322972,4.112 41.4923,4.112 C42.5469719,4.112 43.2469649,4.52732918 43.5923,5.358 C43.8349679,4.92866452 44.1382982,4.61366767 44.5023,4.413 C44.8663018,4.21233233 45.3002975,4.112 45.8043,4.112 C46.2523022,4.112 46.6302985,4.18666592 46.9383,4.336 C47.2463015,4.48533408 47.4959657,4.69066536 47.6873,4.952 C47.8786343,5.21333464 48.0162996,5.51899825 48.1003,5.869 C48.1843004,6.21900175 48.2263,6.59466466 48.2263,6.996 L48.2263,11 L46.5463,11 L46.5463,7.192 C46.5463,6.98666564 46.5276335,6.78833429 46.4903,6.597 C46.4529665,6.40566571 46.3876338,6.23766739 46.2943,6.093 C46.2009662,5.94833261 46.0749675,5.83400042 45.9163,5.75 C45.7576325,5.66599958 45.5523013,5.624 45.3003,5.624 C45.0389654,5.624 44.8173009,5.67299951 44.6353,5.771 C44.4532991,5.86900049 44.3039672,5.99966585 44.1873,6.163 C44.0706328,6.32633415 43.9866336,6.51299895 43.9353,6.723 C43.8839664,6.93300105 43.8583,7.14533226 43.8583,7.36 L43.8583,11 L42.1783,11 L42.1783,6.996 C42.1783,6.5759979 42.0896342,6.24233457 41.9123,5.995 C41.7349658,5.74766543 41.4409687,5.624 41.0303,5.624 C40.7502986,5.624 40.5146343,5.6706662 40.3233,5.764 C40.1319657,5.8573338 39.9733006,5.98333254 39.8473,6.142 C39.7212994,6.30066746 39.6303003,6.48266564 39.5743,6.688 C39.5182997,6.89333436 39.4903,7.10799888 39.4903,7.332 L39.4903,11 L37.8103,11 L37.8103,4.28 Z M51.40445,8.228 C51.4604503,8.73200252 51.6564483,9.1239986 51.99245,9.404 C52.3284517,9.6840014 52.7344476,9.824 53.21045,9.824 C53.6304521,9.824 53.9827819,9.73766753 54.26745,9.565 C54.5521181,9.39233247 54.8017823,9.17533464 55.01645,8.914 L56.22045,9.824 C55.828448,10.3093358 55.3897858,10.6546656 54.90445,10.86 C54.4191142,11.0653344 53.9104527,11.168 53.37845,11.168 C52.8744475,11.168 52.3984522,11.0840008 51.95045,10.916 C51.5024478,10.7479992 51.1151183,10.5100015 50.78845,10.202 C50.4617817,9.89399846 50.2027843,9.52300217 50.01145,9.089 C49.8201157,8.65499783 49.72445,8.17200266 49.72445,7.64 C49.72445,7.10799734 49.8201157,6.62500217 50.01145,6.191 C50.2027843,5.75699783 50.4617817,5.38600154 50.78845,5.078 C51.1151183,4.76999846 51.5024478,4.53200084 51.95045,4.364 C52.3984522,4.19599916 52.8744475,4.112 53.37845,4.112 C53.845119,4.112 54.2721147,4.19366585 54.65945,4.357 C55.0467853,4.52033415 55.3781153,4.75599846 55.65345,5.064 C55.9287847,5.37200154 56.1434492,5.75233107 56.29745,6.205 C56.4514508,6.65766893 56.52845,7.17799706 56.52845,7.766 L56.52845,8.228 L51.40445,8.228 Z M54.84845,6.968 C54.8391166,6.47333086 54.6851182,6.08366809 54.38645,5.799 C54.0877818,5.51433191 53.6724527,5.372 53.14045,5.372 C52.6364475,5.372 52.2374515,5.51666522 51.94345,5.806 C51.6494485,6.09533478 51.4697837,6.48266424 51.40445,6.968 L54.84845,6.968 Z M59.4406,8.228 C59.4966003,8.73200252 59.6925983,9.1239986 60.0286,9.404 C60.3646017,9.6840014 60.7705976,9.824 61.2466,9.824 C61.6666021,9.824 62.0189319,9.73766753 62.3036,9.565 C62.5882681,9.39233247 62.8379323,9.17533464 63.0526,8.914 L64.2566,9.824 C63.864598,10.3093358 63.4259358,10.6546656 62.9406,10.86 C62.4552642,11.0653344 61.9466027,11.168 61.4146,11.168 C60.9105975,11.168 60.4346022,11.0840008 59.9866,10.916 C59.5385978,10.7479992 59.1512683,10.5100015 58.8246,10.202 C58.4979317,9.89399846 58.2389343,9.52300217 58.0476,9.089 C57.8562657,8.65499783 57.7606,8.17200266 57.7606,7.64 C57.7606,7.10799734 57.8562657,6.62500217 58.0476,6.191 C58.2389343,5.75699783 58.4979317,5.38600154 58.8246,5.078 C59.1512683,4.76999846 59.5385978,4.53200084 59.9866,4.364 C60.4346022,4.19599916 60.9105975,4.112 61.4146,4.112 C61.881269,4.112 62.3082647,4.19366585 62.6956,4.357 C63.0829353,4.52033415 63.4142653,4.75599846 63.6896,5.064 C63.9649347,5.37200154 64.1795992,5.75233107 64.3336,6.205 C64.4876008,6.65766893 64.5646,7.17799706 64.5646,7.766 L64.5646,8.228 L59.4406,8.228 Z M62.8846,6.968 C62.8752666,6.47333086 62.7212682,6.08366809 62.4226,5.799 C62.1239318,5.51433191 61.7086027,5.372 61.1766,5.372 C60.6725975,5.372 60.2736015,5.51666522 59.9796,5.806 C59.6855985,6.09533478 59.5059337,6.48266424 59.4406,6.968 L62.8846,6.968 Z M66.13275,4.28 L67.72875,4.28 L67.72875,5.358 L67.75675,5.358 C67.9154175,5.02199832 68.1580817,4.73033457 68.48475,4.483 C68.8114183,4.23566543 69.2547472,4.112 69.81475,4.112 C70.2627522,4.112 70.6430818,4.18666592 70.95575,4.336 C71.2684182,4.48533408 71.522749,4.68133212 71.71875,4.924 C71.914751,5.16666788 72.0547496,5.44666508 72.13875,5.764 C72.2227504,6.08133492 72.26475,6.41266494 72.26475,6.758 L72.26475,11 L70.58475,11 L70.58475,7.598 C70.58475,7.4113324 70.5754168,7.20366781 70.55675,6.975 C70.5380832,6.74633219 70.4890837,6.53166767 70.40975,6.331 C70.3304163,6.13033233 70.2067508,5.96233401 70.03875,5.827 C69.8707492,5.69166599 69.6420848,5.624 69.35275,5.624 C69.0727486,5.624 68.8370843,5.6706662 68.64575,5.764 C68.4544157,5.8573338 68.2957506,5.98333254 68.16975,6.142 C68.0437494,6.30066746 67.9527503,6.48266564 67.89675,6.688 C67.8407497,6.89333436 67.81275,7.10799888 67.81275,7.332 L67.81275,11 L66.13275,11 L66.13275,4.28 Z M73.3849,5.708 L73.3849,4.28 L74.7709,4.28 L74.7709,2.334 L76.4509,2.334 L76.4509,4.28 L78.2989,4.28 L78.2989,5.708 L76.4509,5.708 L76.4509,8.648 C76.4509,8.98400168 76.5138994,9.24999902 76.6399,9.446 C76.7659006,9.64200098 77.0155648,9.74 77.3889,9.74 C77.5382341,9.74 77.7015658,9.72366683 77.8789,9.691 C78.0562342,9.65833317 78.1962328,9.60466704 78.2989,9.53 L78.2989,10.944 C78.1215658,11.0280004 77.904568,11.0863332 77.6479,11.119 C77.391232,11.1516668 77.164901,11.168 76.9689,11.168 C76.5208978,11.168 76.1545681,11.1190005 75.8699,11.021 C75.5852319,10.9229995 75.3612342,10.7736677 75.1979,10.573 C75.0345658,10.3723323 74.922567,10.1226682 74.8619,9.824 C74.801233,9.52533184 74.7709,9.18000196 74.7709,8.788 L74.7709,5.708 L73.3849,5.708 Z M80.95905,8.228 C81.0150503,8.73200252 81.2110483,9.1239986 81.54705,9.404 C81.8830517,9.6840014 82.2890476,9.824 82.76505,9.824 C83.1850521,9.824 83.5373819,9.73766753 83.82205,9.565 C84.1067181,9.39233247 84.3563823,9.17533464 84.57105,8.914 L85.77505,9.824 C85.383048,10.3093358 84.9443858,10.6546656 84.45905,10.86 C83.9737142,11.0653344 83.4650527,11.168 82.93305,11.168 C82.4290475,11.168 81.9530522,11.0840008 81.50505,10.916 C81.0570478,10.7479992 80.6697183,10.5100015 80.34305,10.202 C80.0163817,9.89399846 79.7573843,9.52300217 79.56605,9.089 C79.3747157,8.65499783 79.27905,8.17200266 79.27905,7.64 C79.27905,7.10799734 79.3747157,6.62500217 79.56605,6.191 C79.7573843,5.75699783 80.0163817,5.38600154 80.34305,5.078 C80.6697183,4.76999846 81.0570478,4.53200084 81.50505,4.364 C81.9530522,4.19599916 82.4290475,4.112 82.93305,4.112 C83.399719,4.112 83.8267147,4.19366585 84.21405,4.357 C84.6013853,4.52033415 84.9327153,4.75599846 85.20805,5.064 C85.4833847,5.37200154 85.6980492,5.75233107 85.85205,6.205 C86.0060508,6.65766893 86.08305,7.17799706 86.08305,7.766 L86.08305,8.228 L80.95905,8.228 Z M84.40305,6.968 C84.3937166,6.47333086 84.2397182,6.08366809 83.94105,5.799 C83.6423818,5.51433191 83.2270527,5.372 82.69505,5.372 C82.1910475,5.372 81.7920515,5.51666522 81.49805,5.806 C81.2040485,6.09533478 81.0243837,6.48266424 80.95905,6.968 L84.40305,6.968 Z M22.312,15.088 L23.838,15.088 L28.108,25 L26.092,25 L25.168,22.732 L20.87,22.732 L19.974,25 L18,25 L22.312,15.088 Z M24.552,21.22 L23.026,17.188 L21.472,21.22 L24.552,21.22 Z M28.99015,18.28 L30.58615,18.28 L30.58615,19.33 L30.61415,19.33 C30.7634841,19.0126651 31.003815,18.7303346 31.33515,18.483 C31.666485,18.2356654 32.1121472,18.112 32.67215,18.112 C33.7268219,18.112 34.4268149,18.5273292 34.77215,19.358 C35.0148179,18.9286645 35.3181482,18.6136677 35.68215,18.413 C36.0461518,18.2123323 36.4801475,18.112 36.98415,18.112 C37.4321522,18.112 37.8101485,18.1866659 38.11815,18.336 C38.4261515,18.4853341 38.6758157,18.6906654 38.86715,18.952 C39.0584843,19.2133346 39.1961496,19.5189983 39.28015,19.869 C39.3641504,20.2190018 39.40615,20.5946647 39.40615,20.996 L39.40615,25 L37.72615,25 L37.72615,21.192 C37.72615,20.9866656 37.7074835,20.7883343 37.67015,20.597 C37.6328165,20.4056657 37.5674838,20.2376674 37.47415,20.093 C37.3808162,19.9483326 37.2548175,19.8340004 37.09615,19.75 C36.9374825,19.6659996 36.7321513,19.624 36.48015,19.624 C36.2188154,19.624 35.9971509,19.6729995 35.81515,19.771 C35.6331491,19.8690005 35.4838173,19.9996658 35.36715,20.163 C35.2504828,20.3263342 35.1664836,20.512999 35.11515,20.723 C35.0638164,20.9330011 35.03815,21.1453323 35.03815,21.36 L35.03815,25 L33.35815,25 L33.35815,20.996 C33.35815,20.5759979 33.2694842,20.2423346 33.09215,19.995 C32.9148158,19.7476654 32.6208187,19.624 32.21015,19.624 C31.9301486,19.624 31.6944843,19.6706662 31.50315,19.764 C31.3118157,19.8573338 31.1531506,19.9833325 31.02715,20.142 C30.9011494,20.3006675 30.8101503,20.4826656 30.75415,20.688 C30.6981497,20.8933344 30.67015,21.1079989 30.67015,21.332 L30.67015,25 L28.99015,25 L28.99015,18.28 Z M44.8243,20.142 C44.4976317,19.6846644 44.0589694,19.456 43.5083,19.456 C43.2842989,19.456 43.0649677,19.5119994 42.8503,19.624 C42.6356323,19.7360006 42.5283,19.9179987 42.5283,20.17 C42.5283,20.3753344 42.6169658,20.5246662 42.7943,20.618 C42.9716342,20.7113338 43.195632,20.7906663 43.4663,20.856 C43.736968,20.9213337 44.0286318,20.9889997 44.3413,21.059 C44.6539682,21.1290003 44.945632,21.2363326 45.2163,21.381 C45.486968,21.5256674 45.7109658,21.7239987 45.8883,21.976 C46.0656342,22.2280013 46.1543,22.5733311 46.1543,23.012 C46.1543,23.4133353 46.0679675,23.7516653 45.8953,24.027 C45.7226325,24.3023347 45.4986347,24.5239992 45.2233,24.692 C44.9479653,24.8600008 44.6376351,24.981333 44.2923,25.056 C43.9469649,25.130667 43.6016351,25.168 43.2563,25.168 C42.7336307,25.168 42.2529689,25.0933341 41.8143,24.944 C41.3756311,24.7946659 40.9836351,24.524002 40.6383,24.132 L41.7583,23.082 C41.9729677,23.3246679 42.2039654,23.5229992 42.4513,23.677 C42.6986346,23.8310008 42.9996316,23.908 43.3543,23.908 C43.4756339,23.908 43.6016327,23.8940001 43.7323,23.866 C43.8629673,23.8379999 43.9842994,23.7913337 44.0963,23.726 C44.2083006,23.6606663 44.2992997,23.5790005 44.3693,23.481 C44.4393003,23.3829995 44.4743,23.2686673 44.4743,23.138 C44.4743,22.9046655 44.3856342,22.7320006 44.2083,22.62 C44.0309658,22.5079994 43.806968,22.4170003 43.5363,22.347 C43.265632,22.2769997 42.9739682,22.211667 42.6613,22.151 C42.3486318,22.090333 42.056968,21.992334 41.7863,21.857 C41.515632,21.721666 41.2916342,21.5326679 41.1143,21.29 C40.9369658,21.0473321 40.8483,20.7113355 40.8483,20.282 C40.8483,19.9086648 40.9252992,19.5843347 41.0793,19.309 C41.2333008,19.0336653 41.4362987,18.8073342 41.6883,18.63 C41.9403013,18.4526658 42.2296317,18.3220004 42.5563,18.238 C42.8829683,18.1539996 43.2142983,18.112 43.5503,18.112 C43.9983022,18.112 44.4416311,18.1889992 44.8803,18.343 C45.3189689,18.4970008 45.673632,18.7606648 45.9443,19.134 L44.8243,20.142 Z M46.67245,19.708 L46.67245,18.28 L48.05845,18.28 L48.05845,16.334 L49.73845,16.334 L49.73845,18.28 L51.58645,18.28 L51.58645,19.708 L49.73845,19.708 L49.73845,22.648 C49.73845,22.9840017 49.8014494,23.249999 49.92745,23.446 C50.0534506,23.642001 50.3031148,23.74 50.67645,23.74 C50.8257841,23.74 50.9891158,23.7236668 51.16645,23.691 C51.3437842,23.6583332 51.4837828,23.604667 51.58645,23.53 L51.58645,24.944 C51.4091158,25.0280004 51.1921179,25.0863332 50.93545,25.119 C50.678782,25.1516668 50.452451,25.168 50.25645,25.168 C49.8084478,25.168 49.4421181,25.1190005 49.15745,25.021 C48.8727819,24.9229995 48.6487841,24.7736677 48.48545,24.573 C48.3221159,24.3723323 48.210117,24.1226682 48.14945,23.824 C48.088783,23.5253318 48.05845,23.180002 48.05845,22.788 L48.05845,19.708 L46.67245,19.708 Z M54.2466,22.228 C54.3026003,22.7320025 54.4985983,23.1239986 54.8346,23.404 C55.1706017,23.6840014 55.5765976,23.824 56.0526,23.824 C56.4726021,23.824 56.8249319,23.7376675 57.1096,23.565 C57.3942681,23.3923325 57.6439323,23.1753346 57.8586,22.914 L59.0626,23.824 C58.670598,24.3093358 58.2319358,24.6546656 57.7466,24.86 C57.2612642,25.0653344 56.7526027,25.168 56.2206,25.168 C55.7165975,25.168 55.2406022,25.0840008 54.7926,24.916 C54.3445978,24.7479992 53.9572683,24.5100015 53.6306,24.202 C53.3039317,23.8939985 53.0449343,23.5230022 52.8536,23.089 C52.6622657,22.6549978 52.5666,22.1720027 52.5666,21.64 C52.5666,21.1079973 52.6622657,20.6250022 52.8536,20.191 C53.0449343,19.7569978 53.3039317,19.3860015 53.6306,19.078 C53.9572683,18.7699985 54.3445978,18.5320008 54.7926,18.364 C55.2406022,18.1959992 55.7165975,18.112 56.2206,18.112 C56.687269,18.112 57.1142647,18.1936658 57.5016,18.357 C57.8889353,18.5203342 58.2202653,18.7559985 58.4956,19.064 C58.7709347,19.3720015 58.9855992,19.7523311 59.1396,20.205 C59.2936008,20.6576689 59.3706,21.1779971 59.3706,21.766 L59.3706,22.228 L54.2466,22.228 Z M57.6906,20.968 C57.6812666,20.4733309 57.5272682,20.0836681 57.2286,19.799 C56.9299318,19.5143319 56.5146027,19.372 55.9826,19.372 C55.4785975,19.372 55.0796015,19.5166652 54.7856,19.806 C54.4915985,20.0953348 54.3119337,20.4826642 54.2466,20.968 L57.6906,20.968 Z M60.93875,18.28 L62.61875,18.28 L62.61875,19.344 L62.64675,19.344 C62.8334176,18.951998 63.0994149,18.6486677 63.44475,18.434 C63.7900851,18.2193323 64.1867478,18.112 64.63475,18.112 C64.7374172,18.112 64.8377495,18.1213332 64.93575,18.14 C65.0337505,18.1586668 65.1340828,18.1819999 65.23675,18.21 L65.23675,19.834 C65.0967493,19.7966665 64.959084,19.7663334 64.82375,19.743 C64.688416,19.7196665 64.5554173,19.708 64.42475,19.708 C64.032748,19.708 63.7177512,19.7803326 63.47975,19.925 C63.2417488,20.0696674 63.0597506,20.2353324 62.93375,20.422 C62.8077494,20.6086676 62.7237502,20.7953324 62.68175,20.982 C62.6397498,21.1686676 62.61875,21.3086662 62.61875,21.402 L62.61875,25 L60.93875,25 L60.93875,18.28 Z M71.4529,23.992 L71.4249,23.992 C71.1822321,24.4026687 70.8555687,24.7013324 70.4449,24.888 C70.0342313,25.0746676 69.5909024,25.168 69.1149,25.168 C68.5922307,25.168 68.127902,25.0770009 67.7219,24.895 C67.315898,24.7129991 66.9682348,24.4633349 66.6789,24.146 C66.3895652,23.8286651 66.1702341,23.4553355 66.0209,23.026 C65.8715659,22.5966645 65.7969,22.1346691 65.7969,21.64 C65.7969,21.1453309 65.8762325,20.6833355 66.0349,20.254 C66.1935675,19.8246645 66.4152319,19.4513349 66.6999,19.134 C66.9845681,18.8166651 67.3275647,18.5670009 67.7289,18.385 C68.1302353,18.2029991 68.5688976,18.112 69.0449,18.112 C69.3622349,18.112 69.6422321,18.1446663 69.8849,18.21 C70.1275679,18.2753337 70.3422324,18.3593328 70.5289,18.462 C70.7155676,18.5646672 70.8742327,18.6743327 71.0049,18.791 C71.1355673,18.9076673 71.2428996,19.0219994 71.3269,19.134 L71.3689,19.134 L71.3689,14.416 L73.0489,14.416 L73.0489,25 L71.4529,25 L71.4529,23.992 Z M67.4769,21.64 C67.4769,21.9013346 67.5212329,22.1533321 67.6099,22.396 C67.6985671,22.6386679 67.8292325,22.8533324 68.0019,23.04 C68.1745675,23.2266676 68.3822321,23.3759994 68.6249,23.488 C68.8675679,23.6000006 69.1428985,23.656 69.4509,23.656 C69.7589015,23.656 70.0342321,23.6000006 70.2769,23.488 C70.5195679,23.3759994 70.7272325,23.2266676 70.8999,23.04 C71.0725675,22.8533324 71.2032329,22.6386679 71.2919,22.396 C71.3805671,22.1533321 71.4249,21.9013346 71.4249,21.64 C71.4249,21.3786654 71.3805671,21.1266679 71.2919,20.884 C71.2032329,20.6413321 71.0725675,20.4266676 70.8999,20.24 C70.7272325,20.0533324 70.5195679,19.9040006 70.2769,19.792 C70.0342321,19.6799994 69.7589015,19.624 69.4509,19.624 C69.1428985,19.624 68.8675679,19.6799994 68.6249,19.792 C68.3822321,19.9040006 68.1745675,20.0533324 68.0019,20.24 C67.8292325,20.4266676 67.6985671,20.6413321 67.6099,20.884 C67.5212329,21.1266679 67.4769,21.3786654 67.4769,21.64 Z M79.15305,24.076 L79.11105,24.076 C78.8683821,24.4586686 78.5603852,24.7363325 78.18705,24.909 C77.8137148,25.0816675 77.4030522,25.168 76.95505,25.168 C76.6470485,25.168 76.3460515,25.1260004 76.05205,25.042 C75.7580485,24.9579996 75.4967178,24.8320008 75.26805,24.664 C75.0393822,24.4959992 74.8550507,24.2860013 74.71505,24.034 C74.5750493,23.7819987 74.50505,23.4880017 74.50505,23.152 C74.50505,22.7879982 74.5703827,22.477668 74.70105,22.221 C74.8317173,21.964332 75.0067156,21.7496675 75.22605,21.577 C75.4453844,21.4043325 75.6997152,21.2666672 75.98905,21.164 C76.2783848,21.0613328 76.5793818,20.9843336 76.89205,20.933 C77.2047182,20.8816664 77.5197151,20.8490001 77.83705,20.835 C78.1543849,20.8209999 78.4530486,20.814 78.73305,20.814 L79.15305,20.814 L79.15305,20.632 C79.15305,20.2119979 79.0083848,19.8970011 78.71905,19.687 C78.4297152,19.476999 78.0610522,19.372 77.61305,19.372 C77.2583816,19.372 76.9270515,19.4349994 76.61905,19.561 C76.3110485,19.6870006 76.0450511,19.8573323 75.82105,20.072 L74.93905,19.19 C75.3123852,18.8073314 75.7487142,18.5320008 76.24805,18.364 C76.7473858,18.1959992 77.2630473,18.112 77.79505,18.112 C78.2710524,18.112 78.6723817,18.1656661 78.99905,18.273 C79.3257183,18.3803339 79.5963823,18.5179992 79.81105,18.686 C80.0257177,18.8540008 80.1913827,19.0476656 80.30805,19.267 C80.4247172,19.4863344 80.5087164,19.7079989 80.56005,19.932 C80.6113836,20.1560011 80.6417166,20.3729989 80.65105,20.583 C80.6603834,20.7930011 80.66505,20.9773325 80.66505,21.136 L80.66505,25 L79.15305,25 L79.15305,24.076 Z M79.05505,21.99 L78.70505,21.99 C78.4717155,21.99 78.2103848,21.9993332 77.92105,22.018 C77.6317152,22.0366668 77.3587179,22.0809996 77.10205,22.151 C76.845382,22.2210004 76.6283842,22.323666 76.45105,22.459 C76.2737158,22.594334 76.18505,22.7833321 76.18505,23.026 C76.18505,23.1846675 76.2200496,23.3176661 76.29005,23.425 C76.3600503,23.5323339 76.4510494,23.623333 76.56305,23.698 C76.6750506,23.772667 76.8010493,23.8263332 76.94105,23.859 C77.0810507,23.8916668 77.2210493,23.908 77.36105,23.908 C77.9397196,23.908 78.3667153,23.7703347 78.64205,23.495 C78.9173847,23.2196653 79.05505,22.8440024 79.05505,22.368 L79.05505,21.99 Z M82.4012,18.28 L83.9972,18.28 L83.9972,19.33 L84.0252,19.33 C84.1745341,19.0126651 84.414865,18.7303346 84.7462,18.483 C85.077535,18.2356654 85.5231972,18.112 86.0832,18.112 C87.1378719,18.112 87.8378649,18.5273292 88.1832,19.358 C88.4258679,18.9286645 88.7291982,18.6136677 89.0932,18.413 C89.4572018,18.2123323 89.8911975,18.112 90.3952,18.112 C90.8432022,18.112 91.2211985,18.1866659 91.5292,18.336 C91.8372015,18.4853341 92.0868657,18.6906654 92.2782,18.952 C92.4695343,19.2133346 92.6071996,19.5189983 92.6912,19.869 C92.7752004,20.2190018 92.8172,20.5946647 92.8172,20.996 L92.8172,25 L91.1372,25 L91.1372,21.192 C91.1372,20.9866656 91.1185335,20.7883343 91.0812,20.597 C91.0438665,20.4056657 90.9785338,20.2376674 90.8852,20.093 C90.7918662,19.9483326 90.6658675,19.8340004 90.5072,19.75 C90.3485325,19.6659996 90.1432013,19.624 89.8912,19.624 C89.6298654,19.624 89.4082009,19.6729995 89.2262,19.771 C89.0441991,19.8690005 88.8948673,19.9996658 88.7782,20.163 C88.6615327,20.3263342 88.5775336,20.512999 88.5262,20.723 C88.4748664,20.9330011 88.4492,21.1453323 88.4492,21.36 L88.4492,25 L86.7692,25 L86.7692,20.996 C86.7692,20.5759979 86.6805342,20.2423346 86.5032,19.995 C86.3258658,19.7476654 86.0318687,19.624 85.6212,19.624 C85.3411986,19.624 85.1055343,19.6706662 84.9142,19.764 C84.7228657,19.8573338 84.5642006,19.9833325 84.4382,20.142 C84.3121994,20.3006675 84.2212003,20.4826656 84.1652,20.688 C84.1091997,20.8933344 84.0812,21.1079989 84.0812,21.332 L84.0812,25 L82.4012,25 L82.4012,18.28 Z" id="GemeenteAmsterdam" fill-rule="nonzero"></path>
            <g id="Andreaskruisen" transform="translate(0.000000, 1.000000)">
                <polygon id="Path" points="0 37.7455601 3.51906158 34.2089032 0 30.6722463 2.34604106 28.3144751 5.86510264 31.851132 9.38416422 28.3144751 11.7302053 30.6722463 8.2111437 34.2089032 11.7302053 37.7455601 9.38416422 40.1033314 5.86510264 36.5666745 2.34604106 40.1033314"></polygon>
                <polygon id="Path" points="0 9.43108504 3.51906158 5.89442815 0 2.35777126 2.34604106 0 5.86510264 3.53665689 9.38416422 0 11.7302053 2.35777126 8.2111437 5.89442815 11.7302053 9.43108504 9.38416422 11.7888563 5.86510264 8.25219941 2.34604106 11.7888563"></polygon>
                <polygon id="Path" points="0 23.6001114 3.51906158 20.0634545 0 16.5267977 2.34604106 14.1690264 5.86510264 17.7056833 9.38416422 14.1690264 11.7302053 16.5267977 8.2111437 20.0634545 11.7302053 23.6001114 9.38416422 25.9578827 5.86510264 22.4212258 2.34604106 25.9578827"></polygon>
            </g>
        </g>
    </g>
</svg>