<?xml version="1.0" encoding="UTF-8"?>
<svg width="100px" height="67px" viewBox="0 0 100 67" version="1.1" xmlns="http://www.w3.org/2000/svg" xmlns:xlink="http://www.w3.org/1999/xlink">
    <!-- Generator: Sketch 55.2 (78181) - https://sketchapp.com -->
    <title>Atom/Logo/Desktop</title>
    <desc>Created with Sketch.</desc>
    <g id="Atom/Logo/Desktop" stroke="none" stroke-width="1" fill="none" fill-rule="evenodd">
        <g fill="#EC0000">
            <path d="M39.204,10.324 C38.068661,10.9306697 36.799007,11.234 35.395,11.234 C34.6843298,11.234 34.0321696,11.1191678 33.4385,10.8895 C32.8448304,10.6598322 32.3335021,10.3348354 31.9045,9.9145 C31.4754979,9.49416456 31.1396679,8.98933628 30.897,8.4 C30.6543321,7.81066372 30.533,7.15633693 30.533,6.437 C30.533,5.70032965 30.6543321,5.03083635 30.897,4.4285 C31.1396679,3.82616365 31.4754979,3.31266879 31.9045,2.888 C32.3335021,2.46333121 32.8448304,2.13616782 33.4385,1.9065 C34.0321696,1.67683218 34.6843298,1.562 35.395,1.562 C36.0970035,1.562 36.7556636,1.64649915 37.371,1.8155 C37.9863364,1.98450084 38.5366642,2.2856645 39.022,2.719 L37.813,3.941 C37.5183319,3.65499857 37.1608354,3.43400078 36.7405,3.278 C36.3201646,3.12199922 35.8760023,3.044 35.408,3.044 C34.931331,3.044 34.5001686,3.12849916 34.1145,3.2975 C33.7288314,3.46650084 33.3973347,3.7004985 33.12,3.9995 C32.8426653,4.2985015 32.6281674,4.64733134 32.4765,5.046 C32.3248326,5.44466866 32.249,5.87366437 32.249,6.333 C32.249,6.82700247 32.3248326,7.28199792 32.4765,7.698 C32.6281674,8.11400208 32.8426653,8.47366515 33.12,8.777 C33.3973347,9.08033485 33.7288314,9.3186658 34.1145,9.492 C34.5001686,9.6653342 34.931331,9.752 35.408,9.752 C35.8240021,9.752 36.2161648,9.71300039 36.5845,9.635 C36.9528352,9.55699961 37.2799986,9.43566749 37.566,9.271 L37.566,7.1 L35.681,7.1 L35.681,5.618 L39.204,5.618 L39.204,10.324 Z M42.2461393,8.426 C42.2981395,8.89400234 42.4801377,9.2579987 42.7921393,9.518 C43.1041408,9.7780013 43.4811371,9.908 43.9231393,9.908 C44.3131412,9.908 44.6403046,9.82783413 44.9046393,9.6675 C45.1689739,9.50716587 45.400805,9.30566788 45.6001393,9.063 L46.7181393,9.908 C46.3541375,10.3586689 45.9468082,10.6793324 45.4961393,10.87 C45.0454704,11.0606676 44.5731418,11.156 44.0791393,11.156 C43.6111369,11.156 43.1691414,11.0780008 42.7531393,10.922 C42.3371372,10.7659992 41.9774741,10.5450014 41.6741393,10.259 C41.3708044,9.97299857 41.1303068,9.62850201 40.9526393,9.2255 C40.7749717,8.82249798 40.6861393,8.37400247 40.6861393,7.88 C40.6861393,7.38599753 40.7749717,6.93750201 40.9526393,6.5345 C41.1303068,6.13149799 41.3708044,5.78700143 41.6741393,5.501 C41.9774741,5.21499857 42.3371372,4.99400078 42.7531393,4.838 C43.1691414,4.68199922 43.6111369,4.604 44.0791393,4.604 C44.5124748,4.604 44.9089708,4.67983257 45.2686393,4.8315 C45.6283078,4.98316742 45.9359713,5.20199857 46.1916393,5.488 C46.4473072,5.77400143 46.6466386,6.12716457 46.7896393,6.5475 C46.93264,6.96783544 47.0041393,7.45099727 47.0041393,7.997 L47.0041393,8.426 L42.2461393,8.426 Z M45.4441393,7.256 C45.4354726,6.79666437 45.292474,6.43483465 45.0151393,6.1705 C44.7378046,5.90616535 44.3521418,5.774 43.8581393,5.774 C43.3901369,5.774 43.0196407,5.90833199 42.7466393,6.177 C42.4736379,6.44566801 42.3068063,6.80533108 42.2461393,7.256 L45.4441393,7.256 Z M48.3952786,4.76 L49.8772786,4.76 L49.8772786,5.735 L49.9032786,5.735 C50.0419459,5.44033186 50.2651104,5.17816782 50.5727786,4.9485 C50.8804468,4.71883219 51.294276,4.604 51.8142786,4.604 C52.7936168,4.604 53.4436103,4.98966281 53.7642786,5.761 C53.989613,5.36233134 54.2712769,5.06983427 54.6092786,4.8835 C54.9472803,4.69716573 55.3502762,4.604 55.8182786,4.604 C56.2342807,4.604 56.5852771,4.67333264 56.8712786,4.812 C57.15728,4.95066736 57.389111,5.14133212 57.5667786,5.384 C57.7444461,5.62666788 57.8722782,5.91049837 57.9502786,6.2355 C58.028279,6.56050162 58.0672786,6.90933147 58.0672786,7.282 L58.0672786,11 L56.5072786,11 L56.5072786,7.464 C56.5072786,7.27333238 56.4899454,7.08916756 56.4552786,6.9115 C56.4206117,6.73383245 56.3599457,6.577834 56.2732786,6.4435 C56.1866115,6.309166 56.0696126,6.20300039 55.9222786,6.125 C55.7749445,6.04699961 55.5842797,6.008 55.3502786,6.008 C55.1076107,6.008 54.9017794,6.05349955 54.7327786,6.1445 C54.5637777,6.23550046 54.4251124,6.35683257 54.3167786,6.5085 C54.2084447,6.66016742 54.1304455,6.83349903 54.0827786,7.0285 C54.0351117,7.22350098 54.0112786,7.42066567 54.0112786,7.62 L54.0112786,11 L52.4512786,11 L52.4512786,7.282 C52.4512786,6.89199805 52.3689461,6.58216781 52.2042786,6.3525 C52.0396111,6.12283219 51.7666138,6.008 51.3852786,6.008 C51.1252773,6.008 50.9064461,6.0513329 50.7287786,6.138 C50.551111,6.2246671 50.4037792,6.34166593 50.2867786,6.489 C50.169778,6.63633407 50.0852788,6.80533238 50.0332786,6.996 C49.9812783,7.18666762 49.9552786,7.38599896 49.9552786,7.594 L49.9552786,11 L48.3952786,11 L48.3952786,4.76 Z M61.0184179,8.426 C61.0704181,8.89400234 61.2524163,9.2579987 61.5644179,9.518 C61.8764194,9.7780013 62.2534156,9.908 62.6954179,9.908 C63.0854198,9.908 63.4125832,9.82783413 63.6769179,9.6675 C63.9412525,9.50716587 64.1730835,9.30566788 64.3724179,9.063 L65.4904179,9.908 C65.126416,10.3586689 64.7190868,10.6793324 64.2684179,10.87 C63.8177489,11.0606676 63.3454203,11.156 62.8514179,11.156 C62.3834155,11.156 61.9414199,11.0780008 61.5254179,10.922 C61.1094158,10.7659992 60.7497527,10.5450014 60.4464179,10.259 C60.143083,9.97299857 59.9025854,9.62850201 59.7249179,9.2255 C59.5472503,8.82249798 59.4584179,8.37400247 59.4584179,7.88 C59.4584179,7.38599753 59.5472503,6.93750201 59.7249179,6.5345 C59.9025854,6.13149799 60.143083,5.78700143 60.4464179,5.501 C60.7497527,5.21499857 61.1094158,4.99400078 61.5254179,4.838 C61.9414199,4.68199922 62.3834155,4.604 62.8514179,4.604 C63.2847534,4.604 63.6812494,4.67983257 64.0409179,4.8315 C64.4005863,4.98316742 64.7082499,5.20199857 64.9639179,5.488 C65.2195858,5.77400143 65.4189171,6.12716457 65.5619179,6.5475 C65.7049186,6.96783544 65.7764179,7.45099727 65.7764179,7.997 L65.7764179,8.426 L61.0184179,8.426 Z M64.2164179,7.256 C64.2077511,6.79666437 64.0647526,6.43483465 63.7874179,6.1705 C63.5100831,5.90616535 63.1244203,5.774 62.6304179,5.774 C62.1624155,5.774 61.7919192,5.90833199 61.5189179,6.177 C61.2459165,6.44566801 61.0790848,6.80533108 61.0184179,7.256 L64.2164179,7.256 Z M68.4805571,8.426 C68.5325574,8.89400234 68.7145556,9.2579987 69.0265571,9.518 C69.3385587,9.7780013 69.7155549,9.908 70.1575571,9.908 C70.5475591,9.908 70.8747225,9.82783413 71.1390571,9.6675 C71.4033918,9.50716587 71.6352228,9.30566788 71.8345571,9.063 L72.9525571,9.908 C72.5885553,10.3586689 72.1812261,10.6793324 71.7305571,10.87 C71.2798882,11.0606676 70.8075596,11.156 70.3135571,11.156 C69.8455548,11.156 69.4035592,11.0780008 68.9875571,10.922 C68.5715551,10.7659992 68.211892,10.5450014 67.9085571,10.259 C67.6052223,9.97299857 67.3647247,9.62850201 67.1870571,9.2255 C67.0093896,8.82249798 66.9205571,8.37400247 66.9205571,7.88 C66.9205571,7.38599753 67.0093896,6.93750201 67.1870571,6.5345 C67.3647247,6.13149799 67.6052223,5.78700143 67.9085571,5.501 C68.211892,5.21499857 68.5715551,4.99400078 68.9875571,4.838 C69.4035592,4.68199922 69.8455548,4.604 70.3135571,4.604 C70.7468926,4.604 71.1433887,4.67983257 71.5030571,4.8315 C71.8627256,4.98316742 72.1703892,5.20199857 72.4260571,5.488 C72.6817251,5.77400143 72.8810564,6.12716457 73.0240571,6.5475 C73.1670579,6.96783544 73.2385571,7.45099727 73.2385571,7.997 L73.2385571,8.426 L68.4805571,8.426 Z M71.6785571,7.256 C71.6698904,6.79666437 71.5268919,6.43483465 71.2495571,6.1705 C70.9722224,5.90616535 70.5865596,5.774 70.0925571,5.774 C69.6245548,5.774 69.2540585,5.90833199 68.9810571,6.177 C68.7080558,6.44566801 68.5412241,6.80533108 68.4805571,7.256 L71.6785571,7.256 Z M74.6946964,4.76 L76.1766964,4.76 L76.1766964,5.761 L76.2026964,5.761 C76.3500305,5.44899844 76.5753616,5.17816782 76.8786964,4.9485 C77.1820313,4.71883219 77.5936938,4.604 78.1136964,4.604 C78.5296985,4.604 78.8828616,4.67333264 79.1731964,4.812 C79.4635312,4.95066736 79.6996955,5.13266554 79.8816964,5.358 C80.0636973,5.58333446 80.193696,5.84333186 80.2716964,6.138 C80.3496968,6.43266814 80.3886964,6.74033173 80.3886964,7.061 L80.3886964,11 L78.8286964,11 L78.8286964,7.841 C78.8286964,7.6676658 78.8200298,7.47483439 78.8026964,7.2625 C78.785363,7.05016561 78.7398635,6.85083426 78.6661964,6.6645 C78.5925294,6.47816573 78.4776972,6.32216729 78.3216964,6.1965 C78.1656956,6.07083271 77.9533644,6.008 77.6846964,6.008 C77.4246951,6.008 77.205864,6.0513329 77.0281964,6.138 C76.8505289,6.2246671 76.703197,6.34166593 76.5861964,6.489 C76.4691958,6.63633407 76.3846967,6.80533238 76.3326964,6.996 C76.2806962,7.18666762 76.2546964,7.38599896 76.2546964,7.594 L76.2546964,11 L74.6946964,11 L74.6946964,4.76 Z M81.4288357,6.086 L81.4288357,4.76 L82.7158357,4.76 L82.7158357,2.953 L84.2758357,2.953 L84.2758357,4.76 L85.9918357,4.76 L85.9918357,6.086 L84.2758357,6.086 L84.2758357,8.816 C84.2758357,9.12800156 84.3343351,9.37499909 84.4513357,9.557 C84.5683363,9.73900091 84.8001673,9.83 85.1468357,9.83 C85.2855031,9.83 85.4371682,9.81483349 85.6018357,9.7845 C85.7665032,9.75416652 85.8965019,9.70433368 85.9918357,9.635 L85.9918357,10.948 C85.8271682,11.0260004 85.6256702,11.0801665 85.3873357,11.1105 C85.1490012,11.1408335 84.9388366,11.156 84.7568357,11.156 C84.3408336,11.156 84.0006704,11.1105005 83.7363357,11.0195 C83.4720011,10.9284995 83.2640031,10.7898343 83.1123357,10.6035 C82.9606683,10.4171657 82.8566693,10.1853347 82.8003357,9.908 C82.7440021,9.63066528 82.7158357,9.31000182 82.7158357,8.946 L82.7158357,6.086 L81.4288357,6.086 Z M88.461975,8.426 C88.5139753,8.89400234 88.6959734,9.2579987 89.007975,9.518 C89.3199766,9.7780013 89.6969728,9.908 90.138975,9.908 C90.5289769,9.908 90.8561403,9.82783413 91.120475,9.6675 C91.3848097,9.50716587 91.6166407,9.30566788 91.815975,9.063 L92.933975,9.908 C92.5699732,10.3586689 92.1626439,10.6793324 91.711975,10.87 C91.2613061,11.0606676 90.7889775,11.156 90.294975,11.156 C89.8269727,11.156 89.3849771,11.0780008 88.968975,10.922 C88.5529729,10.7659992 88.1933098,10.5450014 87.889975,10.259 C87.5866401,9.97299857 87.3461426,9.62850201 87.168475,9.2255 C86.9908074,8.82249798 86.901975,8.37400247 86.901975,7.88 C86.901975,7.38599753 86.9908074,6.93750201 87.168475,6.5345 C87.3461426,6.13149799 87.5866401,5.78700143 87.889975,5.501 C88.1933098,5.21499857 88.5529729,4.99400078 88.968975,4.838 C89.3849771,4.68199922 89.8269727,4.604 90.294975,4.604 C90.7283105,4.604 91.1248065,4.67983257 91.484475,4.8315 C91.8441435,4.98316742 92.1518071,5.20199857 92.407475,5.488 C92.6631429,5.77400143 92.8624743,6.12716457 93.005475,6.5475 C93.1484757,6.96783544 93.219975,7.45099727 93.219975,7.997 L93.219975,8.426 L88.461975,8.426 Z M91.659975,7.256 C91.6513083,6.79666437 91.5083097,6.43483465 91.230975,6.1705 C90.9536403,5.90616535 90.5679775,5.774 90.073975,5.774 C89.6059727,5.774 89.2354764,5.90833199 88.962475,6.177 C88.6894736,6.44566801 88.522642,6.80533108 88.461975,7.256 L91.659975,7.256 Z M34.004,14.796 L35.421,14.796 L39.386,24 L37.514,24 L36.656,21.894 L32.665,21.894 L31.833,24 L30,24 L34.004,14.796 Z M36.084,20.49 L34.667,16.746 L33.224,20.49 L36.084,20.49 Z M40.2051393,17.76 L41.6871393,17.76 L41.6871393,18.735 L41.7131393,18.735 C41.8518066,18.4403319 42.0749711,18.1781678 42.3826393,17.9485 C42.6903075,17.7188322 43.1041367,17.604 43.6241393,17.604 C44.6034775,17.604 45.253471,17.9896628 45.5741393,18.761 C45.7994737,18.3623313 46.0811376,18.0698343 46.4191393,17.8835 C46.757141,17.6971657 47.1601369,17.604 47.6281393,17.604 C48.0441414,17.604 48.3951379,17.6733326 48.6811393,17.812 C48.9671407,17.9506674 49.1989717,18.1413321 49.3766393,18.384 C49.5543068,18.6266679 49.6821389,18.9104984 49.7601393,19.2355 C49.8381397,19.5605016 49.8771393,19.9093315 49.8771393,20.282 L49.8771393,24 L48.3171393,24 L48.3171393,20.464 C48.3171393,20.2733324 48.2998061,20.0891676 48.2651393,19.9115 C48.2304724,19.7338324 48.1698064,19.577834 48.0831393,19.4435 C47.9964722,19.309166 47.8794734,19.2030004 47.7321393,19.125 C47.5848052,19.0469996 47.3941405,19.008 47.1601393,19.008 C46.9174714,19.008 46.7116401,19.0534995 46.5426393,19.1445 C46.3736384,19.2355005 46.2349732,19.3568326 46.1266393,19.5085 C46.0183054,19.6601674 45.9403062,19.833499 45.8926393,20.0285 C45.8449724,20.223501 45.8211393,20.4206657 45.8211393,20.62 L45.8211393,24 L44.2611393,24 L44.2611393,20.282 C44.2611393,19.891998 44.1788068,19.5821678 44.0141393,19.3525 C43.8494718,19.1228322 43.5764745,19.008 43.1951393,19.008 C42.935138,19.008 42.7163068,19.0513329 42.5386393,19.138 C42.3609717,19.2246671 42.2136399,19.3416659 42.0966393,19.489 C41.9796387,19.6363341 41.8951395,19.8053324 41.8431393,19.996 C41.791139,20.1866676 41.7651393,20.385999 41.7651393,20.594 L41.7651393,24 L40.2051393,24 L40.2051393,17.76 Z M54.9082786,19.489 C54.6049437,19.0643312 54.1976145,18.852 53.6862786,18.852 C53.4782775,18.852 53.2746129,18.9039995 53.0752786,19.008 C52.8759442,19.1120005 52.7762786,19.2809988 52.7762786,19.515 C52.7762786,19.7056676 52.8586111,19.8443329 53.0232786,19.931 C53.1879461,20.0176671 53.395944,20.091333 53.6472786,20.152 C53.8986132,20.212667 54.1694438,20.2754997 54.4597786,20.3405 C54.7501134,20.4055003 55.020944,20.505166 55.2722786,20.6395 C55.5236132,20.773834 55.7316111,20.9579988 55.8962786,21.192 C56.0609461,21.4260012 56.1432786,21.7466646 56.1432786,22.154 C56.1432786,22.5266685 56.0631127,22.8408321 55.9027786,23.0965 C55.7424444,23.3521679 55.5344465,23.5579992 55.2787786,23.714 C55.0231106,23.8700008 54.7349468,23.9826663 54.4142786,24.052 C54.0936103,24.1213337 53.7729468,24.156 53.4522786,24.156 C52.9669428,24.156 52.5206139,24.0866674 52.1132786,23.948 C51.7059432,23.8093326 51.3419468,23.5580018 51.0212786,23.194 L52.0612786,22.219 C52.2606129,22.4443345 52.4751108,22.6284993 52.7047786,22.7715 C52.9344464,22.9145007 53.2139436,22.986 53.5432786,22.986 C53.6559458,22.986 53.7729446,22.9730001 53.8942786,22.947 C54.0156125,22.9209999 54.1282781,22.877667 54.2322786,22.817 C54.3362791,22.756333 54.4207782,22.6805005 54.4857786,22.5895 C54.5507789,22.4984995 54.5832786,22.3923339 54.5832786,22.271 C54.5832786,22.0543323 54.5009461,21.8940005 54.3362786,21.79 C54.1716111,21.6859995 53.9636132,21.6015003 53.7122786,21.5365 C53.460944,21.4714997 53.1901134,21.4108336 52.8997786,21.3545 C52.6094438,21.2981664 52.3386132,21.2071673 52.0872786,21.0815 C51.835944,20.9558327 51.6279461,20.7803345 51.4632786,20.555 C51.2986111,20.3296655 51.2162786,20.0176687 51.2162786,19.619 C51.2162786,19.2723316 51.2877779,18.9711679 51.4307786,18.7155 C51.5737793,18.4598321 51.7622774,18.2496675 51.9962786,18.085 C52.2302797,17.9203325 52.4989437,17.7990004 52.8022786,17.721 C53.1056134,17.6429996 53.413277,17.604 53.7252786,17.604 C54.1412807,17.604 54.5529432,17.6754993 54.9602786,17.8185 C55.3676139,17.9615007 55.696944,18.2063316 55.9482786,18.553 L54.9082786,19.489 Z M56.6244179,19.086 L56.6244179,17.76 L57.9114179,17.76 L57.9114179,15.953 L59.4714179,15.953 L59.4714179,17.76 L61.1874179,17.76 L61.1874179,19.086 L59.4714179,19.086 L59.4714179,21.816 C59.4714179,22.1280016 59.5299173,22.3749991 59.6469179,22.557 C59.7639184,22.7390009 59.9957495,22.83 60.3424179,22.83 C60.4810852,22.83 60.6327504,22.8148335 60.7974179,22.7845 C60.9620853,22.7541665 61.092084,22.7043337 61.1874179,22.635 L61.1874179,23.948 C61.0227504,24.0260004 60.8212524,24.0801665 60.5829179,24.1105 C60.3445833,24.1408335 60.1344188,24.156 59.9524179,24.156 C59.5364158,24.156 59.1962525,24.1105005 58.9319179,24.0195 C58.6675832,23.9284995 58.4595853,23.7898343 58.3079179,23.6035 C58.1562504,23.4171657 58.0522515,23.1853347 57.9959179,22.908 C57.9395842,22.6306653 57.9114179,22.3100018 57.9114179,21.946 L57.9114179,19.086 L56.6244179,19.086 Z M63.6575571,21.426 C63.7095574,21.8940023 63.8915556,22.2579987 64.2035571,22.518 C64.5155587,22.7780013 64.8925549,22.908 65.3345571,22.908 C65.7245591,22.908 66.0517225,22.8278341 66.3160571,22.6675 C66.5803918,22.5071659 66.8122228,22.3056679 67.0115571,22.063 L68.1295571,22.908 C67.7655553,23.3586689 67.3582261,23.6793324 66.9075571,23.87 C66.4568882,24.0606676 65.9845596,24.156 65.4905571,24.156 C65.0225548,24.156 64.5805592,24.0780008 64.1645571,23.922 C63.7485551,23.7659992 63.388892,23.5450014 63.0855571,23.259 C62.7822223,22.9729986 62.5417247,22.628502 62.3640571,22.2255 C62.1863896,21.822498 62.0975571,21.3740025 62.0975571,20.88 C62.0975571,20.3859975 62.1863896,19.937502 62.3640571,19.5345 C62.5417247,19.131498 62.7822223,18.7870014 63.0855571,18.501 C63.388892,18.2149986 63.7485551,17.9940008 64.1645571,17.838 C64.5805592,17.6819992 65.0225548,17.604 65.4905571,17.604 C65.9238926,17.604 66.3203887,17.6798326 66.6800571,17.8315 C67.0397256,17.9831674 67.3473892,18.2019986 67.6030571,18.488 C67.8587251,18.7740014 68.0580564,19.1271646 68.2010571,19.5475 C68.3440579,19.9678354 68.4155571,20.4509973 68.4155571,20.997 L68.4155571,21.426 L63.6575571,21.426 Z M66.8555571,20.256 C66.8468904,19.7966644 66.7038919,19.4348347 66.4265571,19.1705 C66.1492224,18.9061653 65.7635596,18.774 65.2695571,18.774 C64.8015548,18.774 64.4310585,18.908332 64.1580571,19.177 C63.8850558,19.445668 63.7182241,19.8053311 63.6575571,20.256 L66.8555571,20.256 Z M69.8716964,17.76 L71.4316964,17.76 L71.4316964,18.748 L71.4576964,18.748 C71.6310306,18.3839982 71.8780282,18.1023343 72.1986964,17.903 C72.5193647,17.7036657 72.8876943,17.604 73.3036964,17.604 C73.3990302,17.604 73.492196,17.6126666 73.5831964,17.63 C73.6741969,17.6473334 73.7673626,17.6689999 73.8626964,17.695 L73.8626964,19.203 C73.7326958,19.1683332 73.6048637,19.1401668 73.4791964,19.1185 C73.3535291,19.0968332 73.2300304,19.086 73.1086964,19.086 C72.7446946,19.086 72.4521975,19.153166 72.2311964,19.2875 C72.0101953,19.421834 71.841197,19.5756658 71.7241964,19.749 C71.6071958,19.9223342 71.5291966,20.0956658 71.4901964,20.269 C71.4511962,20.4423342 71.4316964,20.5723329 71.4316964,20.659 L71.4316964,24 L69.8716964,24 L69.8716964,17.76 Z M79.6348357,23.064 L79.6088357,23.064 C79.3835013,23.4453352 79.080171,23.7226658 78.6988357,23.896 C78.3175005,24.0693342 77.9058379,24.156 77.4638357,24.156 C76.9785,24.156 76.5473376,24.0715008 76.1703357,23.9025 C75.7933338,23.7334992 75.4705037,23.5016681 75.2018357,23.207 C74.9331677,22.9123319 74.7295031,22.5656687 74.5908357,22.167 C74.4521684,21.7683313 74.3828357,21.3393356 74.3828357,20.88 C74.3828357,20.4206644 74.4565016,19.9916687 74.6038357,19.593 C74.7511698,19.1943313 74.9570011,18.8476681 75.2213357,18.553 C75.4856704,18.2583319 75.8041672,18.0265008 76.1768357,17.8575 C76.5495042,17.6884992 76.9568335,17.604 77.3988357,17.604 C77.6935039,17.604 77.9535013,17.634333 78.1788357,17.695 C78.4041702,17.755667 78.6035015,17.8336662 78.7768357,17.929 C78.9501699,18.0243338 79.0975018,18.1261661 79.2188357,18.2345 C79.3401697,18.3428339 79.4398353,18.4489995 79.5178357,18.553 L79.5568357,18.553 L79.5568357,14.172 L81.1168357,14.172 L81.1168357,24 L79.6348357,24 L79.6348357,23.064 Z M75.9428357,20.88 C75.9428357,21.1226679 75.984002,21.3566655 76.0663357,21.582 C76.1486695,21.8073345 76.2700016,22.0066658 76.4303357,22.18 C76.5906698,22.3533342 76.7835013,22.4919995 77.0088357,22.596 C77.2341702,22.7000005 77.4898343,22.752 77.7758357,22.752 C78.0618371,22.752 78.3175013,22.7000005 78.5428357,22.596 C78.7681702,22.4919995 78.9610016,22.3533342 79.1213357,22.18 C79.2816698,22.0066658 79.403002,21.8073345 79.4853357,21.582 C79.5676695,21.3566655 79.6088357,21.1226679 79.6088357,20.88 C79.6088357,20.6373321 79.5676695,20.4033345 79.4853357,20.178 C79.403002,19.9526655 79.2816698,19.7533342 79.1213357,19.58 C78.9610016,19.4066658 78.7681702,19.2680005 78.5428357,19.164 C78.3175013,19.0599995 78.0618371,19.008 77.7758357,19.008 C77.4898343,19.008 77.2341702,19.0599995 77.0088357,19.164 C76.7835013,19.2680005 76.5906698,19.4066658 76.4303357,19.58 C76.2700016,19.7533342 76.1486695,19.9526655 76.0663357,20.178 C75.984002,20.4033345 75.9428357,20.6373321 75.9428357,20.88 Z M86.784975,23.142 L86.745975,23.142 C86.5206405,23.4973351 86.2346434,23.7551659 85.887975,23.9155 C85.5413066,24.0758341 85.1599771,24.156 84.743975,24.156 C84.4579736,24.156 84.1784764,24.1170004 83.905475,24.039 C83.6324736,23.9609996 83.3898094,23.8440008 83.177475,23.688 C82.9651406,23.5319992 82.7939756,23.3370012 82.663975,23.103 C82.5339743,22.8689988 82.468975,22.5960016 82.468975,22.284 C82.468975,21.9459983 82.5296411,21.6578345 82.650975,21.4195 C82.7723089,21.1811655 82.9348073,20.9818341 83.138475,20.8215 C83.3421427,20.6611659 83.578307,20.5333338 83.846975,20.438 C84.115643,20.3426662 84.3951402,20.2711669 84.685475,20.2235 C84.9758098,20.1758331 85.2683069,20.1455001 85.562975,20.1325 C85.8576431,20.1194999 86.1349737,20.113 86.394975,20.113 L86.784975,20.113 L86.784975,19.944 C86.784975,19.5539981 86.650643,19.261501 86.381975,19.0665 C86.113307,18.871499 85.7709771,18.774 85.354975,18.774 C85.02564,18.774 84.7179764,18.8324994 84.431975,18.9495 C84.1459736,19.0665006 83.898976,19.2246657 83.690975,19.424 L82.871975,18.605 C83.2186434,18.2496649 83.623806,17.9940008 84.087475,17.838 C84.551144,17.6819992 85.0299725,17.604 85.523975,17.604 C85.9659772,17.604 86.3386401,17.6538328 86.641975,17.7535 C86.9453098,17.8531672 87.1966407,17.9809992 87.395975,18.137 C87.5953093,18.2930008 87.7491411,18.4728323 87.857475,18.6765 C87.9658089,18.8801677 88.0438081,19.085999 88.091475,19.294 C88.1391419,19.502001 88.1673083,19.703499 88.175975,19.8985 C88.1846417,20.093501 88.188975,20.2646659 88.188975,20.412 L88.188975,24 L86.784975,24 L86.784975,23.142 Z M86.693975,21.205 L86.368975,21.205 C86.1523072,21.205 85.909643,21.2136666 85.640975,21.231 C85.372307,21.2483334 85.1188095,21.2894997 84.880475,21.3545 C84.6421405,21.4195003 84.4406425,21.5148327 84.275975,21.6405 C84.1113075,21.7661673 84.028975,21.9416655 84.028975,22.167 C84.028975,22.3143341 84.0614747,22.4378328 84.126475,22.5375 C84.1914753,22.6371672 84.2759745,22.7216663 84.379975,22.791 C84.4839755,22.8603337 84.6009743,22.9101665 84.730975,22.9405 C84.8609756,22.9708335 84.9909743,22.986 85.120975,22.986 C85.658311,22.986 86.0548071,22.8581679 86.310475,22.6025 C86.5661429,22.3468321 86.693975,21.9980022 86.693975,21.556 L86.693975,21.205 Z M89.8011143,17.76 L91.2831143,17.76 L91.2831143,18.735 L91.3091143,18.735 C91.4477816,18.4403319 91.6709461,18.1781678 91.9786143,17.9485 C92.2862825,17.7188322 92.7001117,17.604 93.2201143,17.604 C94.1994525,17.604 94.849446,17.9896628 95.1701143,18.761 C95.3954487,18.3623313 95.6771126,18.0698343 96.0151143,17.8835 C96.353116,17.6971657 96.7561119,17.604 97.2241143,17.604 C97.6401164,17.604 97.9911129,17.6733326 98.2771143,17.812 C98.5631157,17.9506674 98.7949467,18.1413321 98.9726143,18.384 C99.1502818,18.6266679 99.2781139,18.9104984 99.3561143,19.2355 C99.4341147,19.5605016 99.4731143,19.9093315 99.4731143,20.282 L99.4731143,24 L97.9131143,24 L97.9131143,20.464 C97.9131143,20.2733324 97.8957811,20.0891676 97.8611143,19.9115 C97.8264474,19.7338324 97.7657814,19.577834 97.6791143,19.4435 C97.5924472,19.309166 97.4754484,19.2030004 97.3281143,19.125 C97.1807802,19.0469996 96.9901155,19.008 96.7561143,19.008 C96.5134464,19.008 96.3076151,19.0534995 96.1386143,19.1445 C95.9696134,19.2355005 95.8309482,19.3568326 95.7226143,19.5085 C95.6142804,19.6601674 95.5362812,19.833499 95.4886143,20.0285 C95.4409474,20.223501 95.4171143,20.4206657 95.4171143,20.62 L95.4171143,24 L93.8571143,24 L93.8571143,20.282 C93.8571143,19.891998 93.7747818,19.5821678 93.6101143,19.3525 C93.4454468,19.1228322 93.1724495,19.008 92.7911143,19.008 C92.531113,19.008 92.3122818,19.0513329 92.1346143,19.138 C91.9569467,19.2246671 91.8096149,19.3416659 91.6926143,19.489 C91.5756137,19.6363341 91.4911145,19.8053324 91.4391143,19.996 C91.387114,20.1866676 91.3611143,20.385999 91.3611143,20.594 L91.3611143,24 L89.8011143,24 L89.8011143,17.76 Z" id="GemeenteAmsterdam" fill-rule="nonzero"></path>
            <g id="Andreaskruisen">
                <polygon id="Path" points="0 62.9092669 5.86510264 57.0148387 0 51.1204106 3.91006843 47.1907918 9.77517107 53.0852199 15.6402737 47.1907918 19.5503421 51.1204106 13.6852395 57.0148387 19.5503421 62.9092669 15.6402737 66.8388856 9.77517107 60.9444575 3.91006843 66.8388856"></polygon>
                <polygon id="Path" points="0 15.7184751 5.86510264 9.82404692 0 3.92961877 3.91006843 0 9.77517107 5.89442815 15.6402737 0 19.5503421 3.92961877 13.6852395 9.82404692 19.5503421 15.7184751 15.6402737 19.6480938 9.77517107 13.7536657 3.91006843 19.6480938"></polygon>
                <polygon id="Path" points="0 39.3335191 5.86510264 33.4390909 0 27.5446628 3.91006843 23.615044 9.77517107 29.5094721 15.6402737 23.615044 19.5503421 27.5446628 13.6852395 33.4390909 19.5503421 39.3335191 15.6402737 43.2631378 9.77517107 37.3687097 3.91006843 43.2631378"></polygon>
            </g>
        </g>
    </g>
</svg>