<?xml version="1.0" encoding="UTF-8"?>
<svg width="63px" height="91px" viewBox="0 0 63 91" version="1.1" xmlns="http://www.w3.org/2000/svg" xmlns:xlink="http://www.w3.org/1999/xlink">
    <!-- Generator: Sketch 58 (84663) - https://sketch.com -->
    <title>draggable</title>
    <desc>Created with Sketch.</desc>
    <g id="Page-1" stroke="none" stroke-width="1" fill="none" fill-rule="evenodd">
        <g id="draggable" transform="translate(1.000000, 0.000000)" fill="#000000" fill-rule="nonzero" stroke="#000000">
            <path d="M54.338,37.864 C52.452,37.864 50.761,38.707 49.619,40.035 L49.619,39.347 C49.619,35.92 46.83,33.132 43.402,33.132 C41.516,33.132 39.828,33.98 38.687,35.311 L38.687,35.106 C38.687,31.678 35.899,28.889 32.472,28.889 C30.588,28.889 28.896,29.732 27.755,31.06 L27.755,21.073 C27.755,17.646 24.966,14.857 21.539,14.857 C18.111,14.857 15.322,17.646 15.322,21.073 L15.322,49.861 L12.262,43.529 C10.769,40.443 7.043,39.145 3.958,40.637 C2.463,41.359 1.34,42.62 0.794,44.188 C0.248,45.756 0.345,47.443 1.078,48.958 C1.126,49.05 5.852,58.117 7.723,62.703 C7.725,62.708 7.728,62.711 7.73,62.715 C7.731,62.718 7.73,62.722 7.732,62.725 C8.54,64.538 9.236,66.128 9.855,67.542 C14.49,78.126 14.869,78.99 25.321,89.877 C25.468,90.03 25.665,90.107 25.862,90.107 C26.049,90.107 26.236,90.038 26.382,89.898 C26.681,89.611 26.691,89.136 26.403,88.837 C16.138,78.146 15.861,77.513 11.231,66.941 C10.611,65.527 9.916,63.937 9.109,62.127 C7.21,57.473 2.605,48.64 2.42,48.286 C1.872,47.152 1.797,45.872 2.212,44.683 C2.626,43.493 3.479,42.537 4.612,41.989 C6.951,40.856 9.779,41.841 10.912,44.183 L15.397,53.464 C15.549,53.779 15.896,53.948 16.24,53.869 C16.581,53.791 16.823,53.487 16.823,53.138 L16.823,21.073 C16.823,18.473 18.939,16.357 21.54,16.357 C24.14,16.357 26.256,18.473 26.256,21.073 L26.256,35.105 C26.256,35.519 26.592,35.855 27.006,35.855 C27.42,35.855 27.756,35.519 27.756,35.105 C27.756,32.504 29.872,30.388 32.473,30.388 C35.073,30.388 37.188,32.504 37.188,35.105 L37.188,39.348 C37.188,39.762 37.524,40.098 37.938,40.098 C38.145,40.098 38.334,40.014 38.469,39.877 C38.605,39.741 38.69,39.553 38.69,39.346 C38.69,36.746 40.804,34.631 43.403,34.631 C46.004,34.631 48.12,36.746 48.12,39.346 L48.12,44.078 C48.12,44.492 48.456,44.828 48.87,44.828 C49.284,44.828 49.62,44.492 49.62,44.078 C49.62,41.478 51.737,39.363 54.339,39.363 C56.938,39.363 59.052,41.478 59.052,44.078 L59.052,54.441 C59.052,72.88 54.577,78.035 47.804,85.837 C46.965,86.804 46.095,87.807 45.199,88.875 C44.932,89.192 44.973,89.666 45.291,89.932 C45.432,90.05 45.603,90.108 45.773,90.108 C45.987,90.108 46.2,90.017 46.347,89.84 C47.239,88.777 48.103,87.781 48.937,86.82 C55.68,79.052 60.552,73.44 60.552,54.441 L60.552,44.079 C60.551,40.652 57.764,37.864 54.338,37.864 Z" id="Path"></path>
            <path d="M2.279,19.806 C2.024,19.478 1.553,19.421 1.227,19.675 C0.9,19.93 0.841,20.401 1.096,20.728 L5.284,26.103 C5.293,26.115 5.307,26.118 5.316,26.129 C5.338,26.154 5.359,26.177 5.384,26.199 C5.396,26.21 5.402,26.224 5.414,26.234 C5.443,26.257 5.478,26.267 5.51,26.285 C5.53,26.297 5.547,26.313 5.568,26.322 C5.581,26.328 5.594,26.333 5.608,26.338 C5.695,26.372 5.784,26.392 5.875,26.392 C5.875,26.392 5.875,26.392 5.875,26.392 L5.875,26.392 L5.875,26.392 C5.875,26.392 5.875,26.392 5.875,26.392 C5.966,26.392 6.055,26.371 6.142,26.338 C6.156,26.333 6.169,26.329 6.182,26.322 C6.203,26.313 6.22,26.297 6.24,26.285 C6.272,26.267 6.306,26.257 6.336,26.234 C6.349,26.224 6.354,26.21 6.366,26.199 C6.391,26.177 6.412,26.155 6.434,26.129 C6.443,26.118 6.457,26.115 6.466,26.103 L10.654,20.728 C10.908,20.401 10.85,19.93 10.523,19.675 C10.197,19.421 9.725,19.478 9.47,19.806 L6.624,23.459 L6.624,3.825 L9.47,7.478 C9.618,7.668 9.839,7.767 10.062,7.767 C10.223,7.767 10.386,7.715 10.522,7.609 C10.849,7.354 10.907,6.883 10.653,6.556 L6.465,1.181 C6.455,1.168 6.441,1.163 6.43,1.151 C6.409,1.128 6.388,1.107 6.365,1.086 C6.353,1.075 6.347,1.061 6.335,1.051 C6.319,1.039 6.3,1.036 6.284,1.026 C6.256,1.007 6.23,0.99 6.201,0.975 C6.173,0.96 6.146,0.95 6.116,0.94 C6.083,0.928 6.051,0.92 6.017,0.913 C5.985,0.907 5.954,0.902 5.921,0.9 C5.905,0.899 5.892,0.891 5.876,0.891 C5.86,0.891 5.846,0.9 5.83,0.901 C5.797,0.903 5.766,0.907 5.733,0.914 C5.699,0.921 5.668,0.929 5.634,0.941 C5.604,0.951 5.576,0.961 5.549,0.974 C5.519,0.989 5.493,1.006 5.466,1.025 C5.449,1.036 5.43,1.038 5.415,1.05 C5.402,1.06 5.397,1.074 5.385,1.085 C5.362,1.106 5.341,1.127 5.32,1.15 C5.309,1.162 5.295,1.168 5.285,1.18 L1.096,6.556 C0.841,6.882 0.9,7.354 1.227,7.608 C1.364,7.714 1.526,7.766 1.687,7.766 C1.91,7.766 2.131,7.667 2.279,7.477 L5.125,3.824 L5.125,23.458 L2.279,19.806 Z" id="Path"></path>
        </g>
    </g>
</svg>