<?xml version="1.0" encoding="UTF-8"?>
<svg width="614px" height="942px" viewBox="0 0 614 942" version="1.1" xmlns="http://www.w3.org/2000/svg" xmlns:xlink="http://www.w3.org/1999/xlink">
    <!-- Generator: Sketch 58 (84663) - https://sketch.com -->
    <title>Group</title>
    <desc>Created with Sketch.</desc>
    <g id="Page-1" stroke="none" stroke-width="1" fill="none" fill-rule="evenodd">
        <g id="draggable" fill="#000000" fill-rule="nonzero">
            <g id="Group">
                <g>
                    <circle id="Oval" cx="114.5" cy="114.5" r="104.1"></circle>
                    <path d="M208.6,114.5 C208.3,153.4 183.8,189.7 146.8,202.9 C109.3,216.3 67.4,204.7 41.8,174.2 C16.4,143.9 13.7,99 34.2,65.5 C54.3,32.4 94.4,14.4 132.5,22.1 C176.4,31 208.3,69.8 208.6,114.5 C208.7,127.4 228.7,127.4 228.6,114.5 C228.3,66.7 198.2,23.9 153.4,7.2 C109.1,-9.2 56.8,5 26.9,41.6 C-3.5,78.8 -8.2,132.2 17,173.6 C42,214.7 90.9,235.6 137.9,226.2 C190.4,215.6 228.3,167.6 228.7,114.5 C228.7,101.6 208.7,101.6 208.6,114.5 Z" id="Path"></path>
                </g>
                <g transform="translate(0.000000, 356.000000)">
                    <circle id="Oval" cx="114.5" cy="115" r="104.1"></circle>
                    <path d="M208.6,115 C208.3,153.9 183.8,190.2 146.8,203.4 C109.3,216.8 67.4,205.2 41.8,174.7 C16.4,144.4 13.7,99.5 34.2,66 C54.3,32.9 94.4,14.9 132.5,22.6 C176.4,31.5 208.3,70.3 208.6,115 C208.7,127.9 228.7,127.9 228.6,115 C228.3,67.2 198.2,24.4 153.4,7.7 C109.1,-8.7 56.8,5.5 26.9,42.1 C-3.5,79.3 -8.2,132.7 17,174.1 C42,215.2 90.9,236.1 137.9,226.7 C190.4,216.1 228.3,168.1 228.7,115 C228.7,102.1 208.7,102.1 208.6,115 Z" id="Path"></path>
                </g>
                <g transform="translate(0.000000, 713.000000)">
                    <circle id="Oval" cx="114.5" cy="114.5" r="104.1"></circle>
                    <path d="M208.6,114.5 C208.3,153.4 183.8,189.7 146.8,202.9 C109.3,216.3 67.4,204.7 41.8,174.2 C16.4,143.9 13.7,99 34.2,65.5 C54.3,32.4 94.4,14.4 132.5,22.1 C176.4,31 208.3,69.8 208.6,114.5 C208.7,127.4 228.7,127.4 228.6,114.5 C228.3,66.7 198.2,23.9 153.4,7.2 C109.1,-9.2 56.8,5 26.9,41.6 C-3.5,78.8 -8.2,132.2 17,173.6 C42,214.7 90.9,235.6 137.9,226.2 C190.4,215.6 228.3,167.6 228.7,114.5 C228.7,101.6 208.7,101.6 208.6,114.5 Z" id="Path"></path>
                </g>
                <g transform="translate(385.000000, 0.000000)">
                    <circle id="Oval" cx="114.5" cy="114.5" r="104.1"></circle>
                    <path d="M208.6,114.5 C208.3,153.4 183.8,189.7 146.8,202.9 C109.3,216.3 67.4,204.7 41.8,174.2 C16.4,143.9 13.7,99 34.2,65.5 C54.3,32.4 94.4,14.4 132.5,22.1 C176.4,31 208.3,69.8 208.6,114.5 C208.7,127.4 228.7,127.4 228.6,114.5 C228.3,66.7 198.2,23.9 153.4,7.2 C109.1,-9.2 56.8,5 26.9,41.6 C-3.5,78.8 -8.2,132.2 17,173.6 C42,214.7 90.9,235.6 137.9,226.2 C190.4,215.6 228.3,167.6 228.7,114.5 C228.7,101.6 208.7,101.6 208.6,114.5 Z" id="Path"></path>
                </g>
                <g transform="translate(385.000000, 356.000000)">
                    <circle id="Oval" cx="114.5" cy="115" r="104.1"></circle>
                    <path d="M208.6,115 C208.3,153.9 183.8,190.2 146.8,203.4 C109.3,216.8 67.4,205.2 41.8,174.7 C16.4,144.4 13.7,99.5 34.2,66 C54.3,32.9 94.4,14.9 132.5,22.6 C176.4,31.5 208.3,70.3 208.6,115 C208.7,127.9 228.7,127.9 228.6,115 C228.3,67.2 198.2,24.4 153.4,7.7 C109.1,-8.7 56.8,5.5 26.9,42.1 C-3.5,79.3 -8.2,132.7 17,174.1 C42,215.2 90.9,236.1 137.9,226.7 C190.4,216.1 228.3,168.1 228.7,115 C228.7,102.1 208.7,102.1 208.6,115 Z" id="Path"></path>
                </g>
                <g transform="translate(385.000000, 713.000000)">
                    <circle id="Oval" cx="114.5" cy="114.5" r="104.1"></circle>
                    <path d="M208.6,114.5 C208.3,153.4 183.8,189.7 146.8,202.9 C109.3,216.3 67.4,204.7 41.8,174.2 C16.4,143.9 13.7,99 34.2,65.5 C54.3,32.4 94.4,14.4 132.5,22.1 C176.4,31 208.3,69.8 208.6,114.5 C208.7,127.4 228.7,127.4 228.6,114.5 C228.3,66.7 198.2,23.9 153.4,7.2 C109.1,-9.2 56.8,5 26.9,41.6 C-3.5,78.8 -8.2,132.2 17,173.6 C42,214.7 90.9,235.6 137.9,226.2 C190.4,215.6 228.3,167.6 228.7,114.5 C228.7,101.6 208.7,101.6 208.6,114.5 Z" id="Path"></path>
                </g>
            </g>
        </g>
    </g>
</svg>