<?xml version="1.0" encoding="UTF-8"?>
<svg width="52px" height="52px" viewBox="0 0 52 52" version="1.1" xmlns="http://www.w3.org/2000/svg" xmlns:xlink="http://www.w3.org/1999/xlink">
    <!-- Generator: Sketch 54.1 (76490) - https://sketchapp.com -->
    <title>power-cord</title>
    <desc>Created with Sketch.</desc>
    <g id="Page-1" stroke="none" stroke-width="1" fill="none" fill-rule="evenodd">
        <g id="power-cord" fill="#FFFFFF" fill-rule="nonzero">
            <path d="M21.367,10.71 L20.664,10.71 C19.84,10.71 19.173,11.322 19.173,12.078 L19.173,17.872 L22.859,17.872 L22.859,12.078 C22.858,11.323 22.191,10.71 21.367,10.71 Z" id="Path"></path>
            <path d="M31.249,10.71 L30.545,10.71 C29.723,10.71 29.055,11.322 29.055,12.078 L29.055,17.872 L32.742,17.872 L32.742,12.078 C32.74,11.323 32.073,10.71 31.249,10.71 Z" id="Path"></path>
            <path d="M25.957,0.577 C11.644,0.577 0,12.221 0,26.534 C0,33.444 2.684,39.947 7.558,44.845 C10.444,47.745 14.016,49.949 17.887,51.211 C18.145,51.296 18.407,51.336 18.664,51.336 C19.716,51.336 20.695,50.666 21.04,49.611 C21.469,48.298 20.752,46.886 19.44,46.459 C16.317,45.438 13.434,43.66 11.103,41.317 C7.168,37.363 5.001,32.113 5.001,26.534 C5.001,14.978 14.402,5.577 25.958,5.577 C37.514,5.577 46.915,14.978 46.915,26.534 C46.915,32.134 44.736,37.393 40.781,41.35 C39.262,42.712 35.495,45.454 33.232,45.454 C32.07,45.454 31.202,45.088 30.496,44.304 C28.707,42.311 28.314,38.276 28.331,35.464 C32.67,35.245 36.124,31.668 36.124,27.276 L36.124,19.496 L15.79,19.496 L15.79,27.276 C15.79,31.583 19.108,35.108 23.327,35.453 C23.301,38.803 23.771,44.293 26.766,47.638 C28.418,49.483 30.656,50.456 33.232,50.456 C38.068,50.456 43.574,45.571 44.184,45.016 L44.264,44.94 C49.198,40.033 51.912,33.498 51.912,26.538 C51.914,12.221 40.27,0.577 25.957,0.577 Z" id="Path"></path>
        </g>
    </g>
</svg>